<svg width="29" height="30" viewBox="0 0 29 30" fill="none" xmlns="http://www.w3.org/2000/svg">
<path d="M14.5 29.875C22.5081 29.875 29 23.3831 29 15.375C29 7.36687 22.5081 0.875 14.5 0.875C6.49187 0.875 0 7.36687 0 15.375C0 23.3831 6.49187 29.875 14.5 29.875Z" fill="#FFD25E"/>
<line x1="8.30469" y1="19.7463" x2="20.8982" y2="19.7463" stroke="#5A4703" stroke-width="2" stroke-linecap="round"/>
<path d="M9.0625 14.1666C10.0635 14.1666 10.875 13.3551 10.875 12.3541C10.875 11.3531 10.0635 10.5416 9.0625 10.5416C8.06148 10.5416 7.25 11.3531 7.25 12.3541C7.25 13.3551 8.06148 14.1666 9.0625 14.1666Z" fill="#5A4703"/>
<path d="M19.9375 14.1666C20.9385 14.1666 21.75 13.3551 21.75 12.3541C21.75 11.3531 20.9385 10.5416 19.9375 10.5416C18.9365 10.5416 18.125 11.3531 18.125 12.3541C18.125 13.3551 18.9365 14.1666 19.9375 14.1666Z" fill="#5A4703"/>
</svg>
