<svg width="39" height="37" viewBox="0 0 39 37" fill="none" xmlns="http://www.w3.org/2000/svg">
<path d="M18.5776 1.2022C18.9203 0.383961 20.0797 0.383961 20.4224 1.2022L24.9774 12.0777C25.1216 12.422 25.4455 12.6573 25.8174 12.688L37.5683 13.6594C38.4524 13.7325 38.8106 14.8351 38.1383 15.4139L29.2027 23.1067C28.9198 23.3502 28.7961 23.731 28.8818 24.0942L31.5892 35.5701C31.7929 36.4335 30.855 37.1149 30.0968 36.6544L20.0191 30.5333C19.7002 30.3396 19.2998 30.3396 18.9809 30.5333L8.90325 36.6544C8.14504 37.1149 7.20714 36.4335 7.41083 35.5701L10.1182 24.0942C10.2039 23.731 10.0802 23.3502 9.79733 23.1067L0.861675 15.4139C0.189386 14.8351 0.547633 13.7325 1.43173 13.6594L13.1826 12.688C13.5545 12.6573 13.8784 12.422 14.0226 12.0777L18.5776 1.2022Z" fill="#E5E5E5"/>
</svg>
